<svg width="252" height="152" viewBox="0 0 252 152" fill="none" xmlns="http://www.w3.org/2000/svg">
<rect x="1" y="1" width="250" height="150" rx="8" fill="#F5F5F5"/>
<path d="M127.462 48.6616H120.518C117.641 48.6616 115.857 50.6992 115.857 53.5763V61.2981C115.857 64.1752 117.606 66.204 120.518 66.204H128.739C131.616 66.204 133.4 64.1752 133.4 61.2981V54.5732" stroke="#999999" stroke-width="2" stroke-linecap="round" stroke-linejoin="round"/>
<path d="M135.901 48.4502H131" stroke="#999999" stroke-width="2" stroke-linecap="round" stroke-linejoin="round"/>
<path d="M133.45 50.901V46" stroke="#999999" stroke-width="2" stroke-linecap="round" stroke-linejoin="round"/>
<path d="M119 60L120.37 58.4414C120.863 57.8791 121.692 57.8762 122.19 58.4337L122.982 59.3062C123.517 59.8947 124.407 59.8522 124.891 59.2154L126.888 56.5959C127.461 55.8432 128.513 55.7968 129.14 56.4954L131 58.5651" stroke="#999999" stroke-width="2" stroke-linecap="round" stroke-linejoin="round"/>
<rect x="1" y="1" width="250" height="150" rx="8" stroke="#999999" stroke-width="0.5"/>
</svg>
