<svg width="216" height="46" viewBox="0 0 216 46" fill="none" xmlns="http://www.w3.org/2000/svg">
<g clip-path="url(#clip0_20_8488)">
<path d="M10.7286 0H32.7522V26.3919L10.7286 0Z" fill="#20603C"/>
<path d="M0 0V40H32.7523L0 0Z" fill="#20603C"/>
<path d="M55.9057 7.55957H38.3998V14.5703H55.9057V7.55957Z" fill="#20603C"/>
<path d="M72 20.8932H38.3998V39.9999H72V20.8932Z" fill="#20603C"/>
</g>
<path d="M96.9414 22.7266H100.691L94.7969 40H91.3867L85.5508 22.7266H89.4062L93.1562 35.8398L96.9414 22.7266ZM106.141 40H102.555V22.7266H106.141V40ZM112.129 34.668C112.238 35.457 112.453 36.0469 112.773 36.4375C113.359 37.1484 114.363 37.5039 115.785 37.5039C116.637 37.5039 117.328 37.4102 117.859 37.2227C118.867 36.8633 119.371 36.1953 119.371 35.2188C119.371 34.6484 119.121 34.207 118.621 33.8945C118.121 33.5898 117.336 33.3203 116.266 33.0859L114.438 32.6758C112.641 32.2695 111.398 31.8281 110.711 31.3516C109.547 30.5547 108.965 29.3086 108.965 27.6133C108.965 26.0664 109.527 24.7812 110.652 23.7578C111.777 22.7344 113.43 22.2227 115.609 22.2227C117.43 22.2227 118.98 22.707 120.262 23.6758C121.551 24.6367 122.227 26.0352 122.289 27.8711H118.82C118.758 26.832 118.305 26.0938 117.461 25.6562C116.898 25.3672 116.199 25.2227 115.363 25.2227C114.434 25.2227 113.691 25.4102 113.137 25.7852C112.582 26.1602 112.305 26.6836 112.305 27.3555C112.305 27.9727 112.578 28.4336 113.125 28.7383C113.477 28.9414 114.227 29.1797 115.375 29.4531L118.352 30.168C119.656 30.4805 120.641 30.8984 121.305 31.4219C122.336 32.2344 122.852 33.4102 122.852 34.9492C122.852 36.5273 122.246 37.8398 121.035 38.8867C119.832 39.9258 118.129 40.4453 115.926 40.4453C113.676 40.4453 111.906 39.9336 110.617 38.9102C109.328 37.8789 108.684 36.4648 108.684 34.668H112.129ZM130.246 33.4727H134.629L132.473 26.6758L130.246 33.4727ZM130.469 22.7266H134.547L140.664 40H136.75L135.637 36.4492H129.273L128.078 40H124.305L130.469 22.7266ZM151.199 22.7266H154.949L149.055 40H145.645L139.809 22.7266H143.664L147.414 35.8398L151.199 22.7266ZM160.035 33.4727H164.418L162.262 26.6758L160.035 33.4727ZM160.258 22.7266H164.336L170.453 40H166.539L165.426 36.4492H159.062L157.867 40H154.094L160.258 22.7266ZM182.383 28.2227C182.383 27.3242 182.145 26.6836 181.668 26.3008C181.199 25.918 180.539 25.7266 179.688 25.7266H176.324V30.8125H179.688C180.539 30.8125 181.199 30.6055 181.668 30.1914C182.145 29.7773 182.383 29.1211 182.383 28.2227ZM185.957 28.1992C185.957 30.2383 185.441 31.6797 184.41 32.5234C183.379 33.3672 181.906 33.7891 179.992 33.7891H176.324V40H172.738V22.7266H180.262C181.996 22.7266 183.379 23.1719 184.41 24.0625C185.441 24.9531 185.957 26.332 185.957 28.1992ZM191.605 33.4727H195.988L193.832 26.6758L191.605 33.4727ZM191.828 22.7266H195.906L202.023 40H198.109L196.996 36.4492H190.633L189.438 40H185.664L191.828 22.7266ZM214.996 22.7266V25.7852H209.828V40H206.195V25.7852H201.004V22.7266H214.996Z" fill="black"/>
<defs>
<clipPath id="clip0_20_8488">
<rect width="72" height="40" fill="white"/>
</clipPath>
</defs>
</svg>
