<svg width="20" height="20" viewBox="0 0 20 20" fill="none" xmlns="http://www.w3.org/2000/svg">
<g clip-path="url(#clip0_67_755)">
<path d="M14.3787 3.89215C14.7669 4.17181 15.1313 4.4843 15.4678 4.8263C16.583 5.98841 17.321 7.47001 17.5823 9.07148C17.8435 10.673 17.6156 12.3173 16.9291 13.7831C16.2426 15.2488 15.1306 16.4655 13.7428 17.2692C12.3551 18.0729 10.7583 18.425 9.16769 18.278C7.57703 18.131 6.06891 17.4921 4.84652 16.4472C3.62413 15.4024 2.74621 14.0018 2.33104 12.4343C1.91587 10.8668 1.9834 9.20755 2.52454 7.68021C3.06567 6.15288 4.05441 4.83082 5.35753 3.89215" stroke="#999999" stroke-width="1.5" stroke-miterlimit="10" stroke-linecap="round"/>
<path d="M9.86572 1.59418V9.01597" stroke="#999999" stroke-width="1.5" stroke-miterlimit="10" stroke-linecap="round"/>
</g>
<defs>
<clipPath id="clip0_67_755">
<rect width="20" height="20" fill="white"/>
</clipPath>
</defs>
</svg>
