<svg width="20" height="16" viewBox="0 0 20 16" fill="none" xmlns="http://www.w3.org/2000/svg">
<path fill-rule="evenodd" clip-rule="evenodd" d="M0.769231 0C0.565218 0 0.369561 0.0889682 0.225302 0.247332C0.0810437 0.405696 0 0.620484 0 0.844444C0 1.06841 0.0810437 1.28319 0.225302 1.44156C0.369561 1.59992 0.565218 1.68889 0.769231 1.68889H19.2308C19.4348 1.68889 19.6304 1.59992 19.7747 1.44156C19.919 1.28319 20 1.06841 20 0.844444C20 0.620484 19.919 0.405696 19.7747 0.247332C19.6304 0.0889682 19.4348 0 19.2308 0H0.769231ZM0 7.6C0 7.37604 0.0810437 7.16125 0.225302 7.00289C0.369561 6.84452 0.565218 6.75556 0.769231 6.75556H19.2308C19.4348 6.75556 19.6304 6.84452 19.7747 7.00289C19.919 7.16125 20 7.37604 20 7.6C20 7.82396 19.919 8.03875 19.7747 8.19711C19.6304 8.35548 19.4348 8.44444 19.2308 8.44444H0.769231C0.565218 8.44444 0.369561 8.35548 0.225302 8.19711C0.0810437 8.03875 0 7.82396 0 7.6ZM0 14.3556C0 14.1316 0.0810437 13.9168 0.225302 13.7584C0.369561 13.6001 0.565218 13.5111 0.769231 13.5111H19.2308C19.4348 13.5111 19.6304 13.6001 19.7747 13.7584C19.919 13.9168 20 14.1316 20 14.3556C20 14.5795 19.919 14.7943 19.7747 14.9527C19.6304 15.111 19.4348 15.2 19.2308 15.2H0.769231C0.565218 15.2 0.369561 15.111 0.225302 14.9527C0.0810437 14.7943 0 14.5795 0 14.3556Z" fill="white"/>
</svg>
